<svg viewBox="0 0 1498 400" xmlns="http://www.w3.org/2000/svg"><g><g><g><g><g><line x1="30.78125" y1="377" x2="25.78125" y2="377" style="visibility: inherit;" fill="rgb(0, 0, 0)" stroke="rgb(200, 195, 188)" stroke-width="1px"></line><line x1="30.78125" y1="335.1111111111111" x2="25.78125" y2="335.1111111111111" style="visibility: inherit;" fill="rgb(0, 0, 0)" stroke="rgb(200, 195, 188)" stroke-width="1px"></line><line x1="30.78125" y1="293.22222222222223" x2="25.78125" y2="293.22222222222223" style="visibility: inherit;" fill="rgb(0, 0, 0)" stroke="rgb(200, 195, 188)" stroke-width="1px"></line><line x1="30.78125" y1="251.33333333333337" x2="25.78125" y2="251.33333333333337" style="visibility: inherit;" fill="rgb(0, 0, 0)" stroke="rgb(200, 195, 188)" stroke-width="1px"></line><line x1="30.78125" y1="209.44444444444446" x2="25.78125" y2="209.44444444444446" style="visibility: inherit;" fill="rgb(0, 0, 0)" stroke="rgb(200, 195, 188)" stroke-width="1px"></line><line x1="30.78125" y1="167.55555555555554" x2="25.78125" y2="167.55555555555554" style="visibility: inherit;" fill="rgb(0, 0, 0)" stroke="rgb(200, 195, 188)" stroke-width="1px"></line><line x1="30.78125" y1="125.66666666666669" x2="25.78125" y2="125.66666666666669" style="visibility: inherit;" fill="rgb(0, 0, 0)" stroke="rgb(200, 195, 188)" stroke-width="1px"></line><line x1="30.78125" y1="83.77777777777777" x2="25.78125" y2="83.77777777777777" style="visibility: inherit;" fill="rgb(0, 0, 0)" stroke="rgb(200, 195, 188)" stroke-width="1px"></line><line x1="30.78125" y1="41.88888888888891" x2="25.78125" y2="41.88888888888891" style="visibility: inherit;" fill="rgb(0, 0, 0)" stroke="rgb(200, 195, 188)" stroke-width="1px"></line><line x1="30.78125" y1="0" x2="25.78125" y2="0" style="visibility: inherit;" fill="rgb(0, 0, 0)" stroke="rgb(200, 195, 188)" stroke-width="1px"></line></g><g transform="translate(20.78125, 0)"><text x="0" y="377" dx="0em" dy="0.3em" style="text-anchor: end; visibility: hidden; font-family: Roboto, sans-serif; font-size: 12px; font-weight: 200;" fill="rgb(232, 230, 227)" stroke="none" stroke-width="1px">0</text><text x="0" y="335.1111111111111" dx="0em" dy="0.3em" style="text-anchor: end; visibility: inherit; font-family: Roboto, sans-serif; font-size: 12px; font-weight: 200;" fill="rgb(232, 230, 227)" stroke="none" stroke-width="1px">2</text><text x="0" y="293.22222222222223" dx="0em" dy="0.3em" style="text-anchor: end; visibility: inherit; font-family: Roboto, sans-serif; font-size: 12px; font-weight: 200;" fill="rgb(232, 230, 227)" stroke="none" stroke-width="1px">4</text><text x="0" y="251.33333333333337" dx="0em" dy="0.3em" style="text-anchor: end; visibility: inherit; font-family: Roboto, sans-serif; font-size: 12px; font-weight: 200;" fill="rgb(232, 230, 227)" stroke="none" stroke-width="1px">6</text><text x="0" y="209.44444444444446" dx="0em" dy="0.3em" style="text-anchor: end; visibility: inherit; font-family: Roboto, sans-serif; font-size: 12px; font-weight: 200;" fill="rgb(232, 230, 227)" stroke="none" stroke-width="1px">8</text><text x="0" y="167.55555555555554" dx="0em" dy="0.3em" style="text-anchor: end; visibility: inherit; font-family: Roboto, sans-serif; font-size: 12px; font-weight: 200;" fill="rgb(232, 230, 227)" stroke="none" stroke-width="1px">10</text><text x="0" y="125.66666666666669" dx="0em" dy="0.3em" style="text-anchor: end; visibility: inherit; font-family: Roboto, sans-serif; font-size: 12px; font-weight: 200;" fill="rgb(232, 230, 227)" stroke="none" stroke-width="1px">12</text><text x="0" y="83.77777777777777" dx="0em" dy="0.3em" style="text-anchor: end; visibility: inherit; font-family: Roboto, sans-serif; font-size: 12px; font-weight: 200;" fill="rgb(232, 230, 227)" stroke="none" stroke-width="1px">14</text><text x="0" y="41.88888888888891" dx="0em" dy="0.3em" style="text-anchor: end; visibility: inherit; font-family: Roboto, sans-serif; font-size: 12px; font-weight: 200;" fill="rgb(232, 230, 227)" stroke="none" stroke-width="1px">16</text><text x="0" y="0" dx="0em" dy="0.3em" style="text-anchor: end; visibility: hidden; font-family: Roboto, sans-serif; font-size: 12px; font-weight: 200;" fill="rgb(232, 230, 227)" stroke="none" stroke-width="1px">18</text></g><line x1="30.78125" y1="0" x2="30.78125" y2="377" fill="rgb(0, 0, 0)" stroke="rgb(200, 195, 188)" stroke-width="1px"></line></g></g><g transform="translate(30, 0)" clip-path="url(#clip_0)"><clipPath id="clip_0"><rect width="1467" height="377"></rect></clipPath><g><g><g><line x1="0" y1="0" x2="0" y2="377" fill="rgb(0, 0, 0)" stroke="rgb(194, 189, 181)" stroke-width="1px" opacity="0.25"></line><line x1="183.40234375" y1="0" x2="183.40234375" y2="377" fill="rgb(0, 0, 0)" stroke="rgb(194, 189, 181)" stroke-width="1px" opacity="0.25"></line><line x1="366.8046875" y1="0" x2="366.8046875" y2="377" fill="rgb(0, 0, 0)" stroke="rgb(194, 189, 181)" stroke-width="1px" opacity="0.25"></line><line x1="550.20703125" y1="0" x2="550.20703125" y2="377" fill="rgb(0, 0, 0)" stroke="rgb(194, 189, 181)" stroke-width="1px" opacity="0.25"></line><line x1="733.609375" y1="0" x2="733.609375" y2="377" fill="rgb(0, 0, 0)" stroke="rgb(194, 189, 181)" stroke-width="1px" opacity="0.25"></line><line x1="917.01171875" y1="0" x2="917.01171875" y2="377" fill="rgb(0, 0, 0)" stroke="rgb(194, 189, 181)" stroke-width="1px" opacity="0.25"></line><line x1="1100.4140625" y1="0" x2="1100.4140625" y2="377" fill="rgb(0, 0, 0)" stroke="rgb(194, 189, 181)" stroke-width="1px" opacity="0.25"></line><line x1="1283.81640625" y1="0" x2="1283.81640625" y2="377" fill="rgb(0, 0, 0)" stroke="rgb(194, 189, 181)" stroke-width="1px" opacity="0.25"></line><line x1="1467.21875" y1="0" x2="1467.21875" y2="377" fill="rgb(0, 0, 0)" stroke="rgb(194, 189, 181)" stroke-width="1px" opacity="0.25"></line></g><g><line x1="0" y1="377" x2="1467.21875" y2="377" fill="rgb(0, 0, 0)" stroke="rgb(194, 189, 181)" stroke-width="1px" opacity="0.25"></line><line x1="0" y1="335.1111111111111" x2="1467.21875" y2="335.1111111111111" fill="rgb(0, 0, 0)" stroke="rgb(194, 189, 181)" stroke-width="1px" opacity="0.25"></line><line x1="0" y1="293.22222222222223" x2="1467.21875" y2="293.22222222222223" fill="rgb(0, 0, 0)" stroke="rgb(194, 189, 181)" stroke-width="1px" opacity="0.25"></line><line x1="0" y1="251.33333333333337" x2="1467.21875" y2="251.33333333333337" fill="rgb(0, 0, 0)" stroke="rgb(194, 189, 181)" stroke-width="1px" opacity="0.25"></line><line x1="0" y1="209.44444444444446" x2="1467.21875" y2="209.44444444444446" fill="rgb(0, 0, 0)" stroke="rgb(194, 189, 181)" stroke-width="1px" opacity="0.25"></line><line x1="0" y1="167.55555555555554" x2="1467.21875" y2="167.55555555555554" fill="rgb(0, 0, 0)" stroke="rgb(194, 189, 181)" stroke-width="1px" opacity="0.25"></line><line x1="0" y1="125.66666666666669" x2="1467.21875" y2="125.66666666666669" fill="rgb(0, 0, 0)" stroke="rgb(194, 189, 181)" stroke-width="1px" opacity="0.25"></line><line x1="0" y1="83.77777777777777" x2="1467.21875" y2="83.77777777777777" fill="rgb(0, 0, 0)" stroke="rgb(194, 189, 181)" stroke-width="1px" opacity="0.25"></line><line x1="0" y1="41.88888888888891" x2="1467.21875" y2="41.88888888888891" fill="rgb(0, 0, 0)" stroke="rgb(194, 189, 181)" stroke-width="1px" opacity="0.25"></line><line x1="0" y1="0" x2="1467.21875" y2="0" fill="rgb(0, 0, 0)" stroke="rgb(194, 189, 181)" stroke-width="1px" opacity="0.25"></line></g></g></g><g><g><line x1="0" y1="377" x2="1467.21875" y2="377" fill="rgb(0, 0, 0)" stroke="rgb(168, 160, 149)" stroke-width="1.5px"></line></g></g><g><g><line x1="183.40234375" y1="0" x2="183.40234375" y2="377" fill="rgb(0, 0, 0)" stroke="rgb(168, 160, 149)" stroke-width="1.5px"></line></g></g><g><g><g><g><g><path stroke="rgb(51, 187, 238)" stroke-width="2px" d="M185.05296484374998,377L187.712298828125,360.63715277777777L189.08781640624997,356.96386054421765L189.17951757812503,349.3275377859477L189.91312695312502,360.7620600084818L191.563748046875,362.63197894289294L192.84756445312502,363.6964867721036L193.21436914062502,368.0436860964434L195.14009375,365.8443249425406L195.32349609374998,362.4317940293776L197.799427734375,355.14235276153016L198.07453125,359.7064578313248L198.4413359375,353.5255241927184L199.1749453125,351.9182216330824L200.91726757812498,361.4317950080889L202.017681640625,360.8519689851151L204.40191210937502,367.3122749050512L205.77742968750002,371.1877585369804L205.86913085937502,365.13450848372264L207.152947265625,367.7863576015945L208.25336132812498,367.80653722585834L209.26207421875,360.4879926742513L209.537177734375,348.7663141460239L212.37991406249998,351.6820245255842L212.65501757812498,355.52589231024405L215.13094921875,359.92665400415285L216.23136328125,359.42543633394473L216.96497265625,352.8413688682402L218.06538671875,359.3631570572729L218.79899609375002,355.4220600297566L220.26621484375002,359.86434771820944L221.45833007812502,353.6283303568444L223.3840546875,354.0756093465762L223.47575585937497,356.4384212311986L224.30106640625002,350.0019415169604L225.676583984375,346.66366487574385L226.043388671875,345.1843100274022L226.960400390625,343.7730860112012L227.41890625,348.68607383988865L227.510607421875,345.3505331883633L230.16994140625,348.5853199156124L230.35334375,352.0970252843907L230.445044921875,348.44432628069086L232.279068359375,338.9221513223205L232.73757421874998,335.8269019041816L232.92097656250002,346.5364189209547L234.38819531250002,357.1510180196367L234.93840234374997,349.90588858939714L237.50603515625,351.84214426477547L237.87283984375,355.0983421144472L238.0562421875,345.0090052686194L241.082380859375,345.7623476056183L241.815990234375,344.6435196744801L242.36619726562498,349.73194513802673L242.4578984375,354.87944486059706L243.74171484375,361.10961136080505L244.567025390625,355.9463223720374L245.30063476562498,360.17890453433415L249.518888671875,360.10039827615606L249.885693359375,353.2463500768044L251.62801562500002,354.3700322683049L253.46203906249997,355.0442415832052L254.470751953125,341.8348782832563L255.11266015625,355.37731585884273L255.66286718749998,348.8416672930834L257.1300859375,336.54250037585L259.69771875,335.96994466995443L261.990248046875,330.9139112464171L262.81555859375,340.44695785896135L264.64958203125,338.3126191598213L269.78484765625,353.7875714958928L275.011814453125,339.51004289753564L275.4703203125,340.36852573852144L276.479033203125,340.88361544311283L277.12094140625,334.38572482142325L277.48774609375,329.9633793372984L277.6711484375,336.7349720468235L278.496458984375,339.75070545031633L280.23878125,335.2768121590787L281.614298828125,317.4077539621139L282.16450585937497,327.63076348837944L284.09023046875,316.4854025374721L284.6404375,320.2704081891499L285.09894335937497,334.0608560246011L285.28234570312503,322.96151361476063L286.566162109375,328.3449637244119L287.2080703125,339.42920045686935L288.49188671875,330.89502027412163L288.950392578125,337.2939566089174L289.04209375,315.4763739653505L290.1425078125,315.99971326809913L291.05951953125,329.4039946275262L291.24292187500004,331.16323010984905L291.97653125,325.9354380659094L292.801841796875,332.22376283954566L295.09437109375,335.9967577037274L295.736279296875,339.83138795556977L297.66200390625,323.8057772177863L298.2122109375,320.9973552195607L298.39561328125,316.17063535395863L298.670716796875,320.605158990153L299.037521484375,325.8839287274251L299.587728515625,313.8664683475662L299.954533203125,308.75043656409525L300.4130390625,313.53498416067936L302.43046484375003,317.45293494085206L304.906396484375,317.1856498534001L306.740419921875,313.3600010231512L308.1159375,312.63544505833516L308.4827421875,323.1965448127789L309.491455078125,318.01376022100067L309.58315625,318.0457561326004L313.34290429687496,332.2024536795603L315.26862890625,307.185361096625L315.360330078125,296.8876055468639L317.010951171875,287.56728555034056L317.10265234375004,297.6834268857599L320.40389453125005,294.32811168701147L321.13750390625,291.79131145665133L321.87111328124996,294.45812020732416L322.14621679687497,285.58598323550564L325.35575781250003,269.7904788301922L325.63086132812504,269.7381761870042L326.914677734375,263.94707237886917L327.18978125,257.3307434273215L327.648287109375,263.309557167504L328.748701171875,263.23156763383577L329.7574140625,269.99171835807925L332.600150390625,252.05614212595867L333.33375976562496,263.8100741644641L336.54330078124997,259.34298894312286L337.918818359375,245.66690447698485L339.47773828124997,249.50430935285758L339.66114062500003,248.1414745006034L339.936244140625,234.23349581147318L340.303048828125,226.93593082021724L346.171923828125,233.55322515879698L346.355326171875,240.1416573175004L347.455740234375,235.71693883494473L347.73084374999996,231.49127441207793L352.774408203125,244.66420909169125L353.141212890625,241.04852545501473L353.9665234375,232.0721708285644L354.608431640625,232.44608027491645L356.53415624999997,224.816259276061L357.542869140625,219.19114445452544L357.81797265625,216.33968667271532L358.3681796875,221.4357564480736L358.459880859375,221.35173164662191L359.8353984375,221.30131676575095L360.9358125,209.22801228167276L361.3026171875,203.55486292455925L361.761123046875,199.62736219918L361.944525390625,186.7986395417302L363.136640625,181.7194615028159L363.228341796875,179.1955657905784L363.68684765625,168.25622836323595L364.878962890625,175.83012590683043L373.22376953125,174.0911310996538L374.049080078125,164.66995643757005L374.96609179687505,179.43808497365316L375.97480468749995,183.586462095303L377.25862109375,187.12271059051514L377.35032226562504,196.05140413208687L377.717126953125,185.70028692369655L377.808828125,194.6743388208846L379.551150390625,183.82682551475298L384.59471484375,189.36137308662956L385.970232421875,188.49321274086665L386.520439453125,181.68898320007557L388.721267578125,174.98838992004534L389.1797734375,161.5430339520272L396.057361328125,149.28693148232747L398.16648828124994,178.06243666717424L399.72540820312497,160.76940644474897L402.93494921875003,146.72831053351607L406.7863984375,165.00781965344302L407.244904296875,153.98385845873247L408.43701953125,144.7514261863506L409.17062890625,152.30224460069925L409.445732421875,151.59662453819732L411.27975585937503,137.55936361180727L412.47187109375,149.55784038930656L412.930376953125,143.14303756691726L414.21419335937503,142.9594336512615L414.39759570312503,144.94371574631248L415.22290624999994,142.99261833667634L415.40630859375,133.44418211311694L418.70755078125,144.99428704564792L419.71626367187497,145.6410166718332L419.80796484375,140.7929433364333L421.733689453125,144.69104377963774L422.37559765624997,142.31740404556044L424.301322265625,134.60988687178067L425.03493164062496,132.6034321230684L425.768541015625,136.63567038495216L428.24447265624997,136.43695778652682L428.61127734375003,147.31356356080497L429.253185546875,142.32008258092742L429.5282890625,143.5128828818898L430.35359960937495,141.08689639580052L431.72911718750004,138.06047117081368L432.187623046875,149.85850492471042L432.55442773437494,154.84288073260404L433.654841796875,152.5973951062291L433.74654296875,153.86815928595965L434.11334765624997,140.49311779379804L434.571853515625,146.0819817873899L434.66355468750004,144.19918907243397L435.855669921875,133.12090233234926L435.94737109374995,130.66281917718734L436.039072265625,124.4754692840902L436.49757812499996,119.7158371260097L436.95608398437497,113.19478005338361L437.2311875,123.94325692091904L438.14819921874994,125.15623193032918L438.790107421875,140.0215169359753L441.2660390625,140.5629101615852L443.28346484375,133.03357943028445L444.2004765625,131.1340365470596L445.759396484375,126.32903303934685L445.85109765625003,117.1626976013859L451.261466796875,110.09206300527595L452.45358203125,126.79412669205445L454.10420312499997,128.9611982374549L454.37930664062503,122.93088560913958L455.02121484375,131.35575358770595L455.296318359375,122.2731743748458L456.029927734375,127.29584906935192L460.24818164062503,120.36084277494444L461.62369921875,117.77067233163334L462.815814453125,114.6457367323133L466.11705664062504,115.38883092827687L466.2087578125,117.40552077918836L467.95108007812496,119.13914580084636L468.04278125,123.32098748050781L468.134482421875,126.87731471052693L469.418298828125,124.82222215964948L469.51,131.9669444069008L469.60170117187505,140.44266664414047L470.243609375,129.29615554203983L471.802529296875,121.03741554744612L474.37016210937503,116.60578266180103L476.112484375,119.18291404152507L476.75439257812496,134.86669286935947L477.2128984375,109.71862683272678L478.40501367187494,102.48395387741382L478.6801171875,120.6584278820039L479.505427734375,110.61866784031342L480.605841796875,102.50036737085475L482.80666992187497,100.24744264473505L483.0817734375,103.08457669795213L486.56641796875,101.64519046321571L489.6842578125,107.06489205570719L491.15147656249997,107.69865745564655L492.80209765624994,102.31919447338792L493.81081054687496,106.42207223958833L494.544419921875,109.40741001041965L495.5531328125,108.58055711736287L496.83694921875,100.23027871486217L500.78009960937504,110.92844500669506L502.79752539062497,127.81956700401706L502.88922656249997,119.62785131352136L503.531134765625,90.10309967700172L503.71453710937504,89.66741536175657L504.3564453125,76.83933810594284L506.74067578125,95.32304730801013L508.39129687499997,90.18132838480608L510.40872265625,86.57268591977255L510.683826171875,90.16722266297464L511.32573437499997,81.8517224866737L512.4261484375,89.4290890475598L513.5265625,83.50328676186923L514.7186777343751,99.84502761267713L514.81037890625,91.32368323427295L514.99378125,87.7817099405638L516.27759765625,87.2273592976716L518.4784257812499,87.9419711341585L518.7535292968751,84.70546045827291L518.936931640625,84.85799849718596L519.120333984375,81.28424354275604L519.3954375,96.94276834787584L519.7622421875,114.71566100872549L520.037345703125,105.48217438301309L521.77966796875,98.37124907425232L523.7970937499999,88.34497166677359L524.2555996093749,78.1403163333975L526.823232421875,71.49391202226072L527.0983359375,71.17134721335641L527.64854296875,84.0680861057916L528.290451171875,82.90474055236385L528.473853515625,74.87617766475168L530.2161757812501,64.82292882107325L530.3078769531251,58.79097951486616L530.674681640625,57.78986548669748L530.94978515625,66.09058595868517L536.268453125,72.11824046409998L536.45185546875,75.2112220562378L537.3688671875,77.59062212263159L538.194177734375,84.77798438469006L541.22031640625,85.42512396414736L542.045626953125,83.71896326737732L542.412431640625,77.98276684931528L542.962638671875,79.2535489984781L544.063052734375,71.63824051019795L544.33815625,79.63572208389651L547.08919140625,80.2453221392268L547.914501953125,78.51663772798054L548.464708984375,70.67248263678833L551.3074453124999,71.72571180429524L551.49084765625,77.59376041591047L552.3161582031249,70.11875624954624L553.32487109375,72.96430930528334L553.875078125,66.81747447205885L554.516986328125,69.41270690545753L557.9099296874999,78.30040192105226L560.202458984375,70.54274115263138L560.752666015625,74.26592246935657L561.302873046875,69.69288681494729L561.5779765625,73.75600986674613L563.59540234375,72.00499480893657L566.804943359375,66.76549688536196L567.81365625,69.3815203534394L571.0231972656251,70.42752332317473L572.76551953125,73.14956954946041L573.040623046875,76.87724172967624L573.3157265625,75.97217837113908L573.774232421875,87.99580702268345L579.36800390625,88.9266508802767L579.826509765625,92.62682386149939L580.285015625,85.94553876134408L580.8352226562499,99.73954547902866L584.961775390625,90.73678284297272L586.4289941406249,83.24068081689478L588.90492578125,69.84163071235908L590.097041015625,63.37303398297101L590.830650390625,63.157153723115925L591.83936328125,57.791514456091804L592.93977734375,55.09574200698839L595.048904296875,74.94633409308189L595.599111328125,74.29002267807134L598.350146484375,72.32540249573172L599.2671582031251,70.09940816410568L599.633962890625,60.38603378735231L601.9264921875,59.79412027241134L602.293296875,69.91119438566899L602.84350390625,65.5092166314014L606.053044921875,66.00969664550749L606.3281484375,62.1210957650823L609.721091796875,72.35460190349384L610.638103515625,75.35303891987408L612.38042578125,80.81737890748L613.11403515625,78.85987178893248L613.48083984375,81.35064529558166L613.6642421875,75.51455384401568L614.21444921875,66.77678786196495L615.039759765625,66.24662827273453L615.8650703125,76.92436585252959L617.1488867187501,78.61850840040664L617.790794921875,74.39888281802175L619.808220703125,81.81571857970191L620.45012890625,82.6005422589323L621.0003359375,80.97699202202605L621.3671406249999,81.57369521321564L621.458841796875,76.6956060168183L623.9347734375,83.717363610091L624.209876953125,82.69430705494348L624.48498046875,89.93463978852164L624.85178515625,80.14133942866853L626.31900390625,78.45424810164555L626.50240625,85.29615997209845L626.777509765625,91.49575153881462L626.8692109375,88.93217314551099L627.6028203125001,75.87458166508435L631.08746484375,64.37474899905058L632.2795800781249,61.140127177208115L633.6550976562501,58.67574297299152L635.397419921875,68.71655689490606L635.764224609375,64.79243413694363L636.4061328125,58.77268270438841L637.231443359375,68.25110962263307L640.0741796875001,71.84372132913533L641.082892578125,67.19234390859232L644.0173300781249,69.1140174562665L646.218158203125,58.223966029315484L647.96048046875,60.59132406203375L649.152595703125,55.72840554833136L649.244296875,55.95232110677658L649.97790625,63.940837108510415L650.1613085937499,59.83255782066181L654.0127578125,57.89120135906376L654.3795625,54.10833192654935L654.7463671875,57.598332489262965L655.7550800781249,53.932610604668895L655.84678125,59.58734414057912L656.0301835937499,66.12185092879191L656.121884765625,65.85366611283072L659.056322265625,71.4524774454762L660.06503515625,70.62287535617463L660.2484375,60.17650299148251L660.706943359375,59.66840179488953L660.890345703125,57.26909663248929L661.8990585937499,51.64062464616026L662.540966796875,66.58993034325171L663.7330820312501,61.422013761506555L665.108599609375,63.55737492357057L665.9339101562499,66.40942495414234L666.209013671875,68.12065497248543L668.960048828125,66.52933742793572L671.06917578125,61.38565801231696L671.160876953125,68.24806147405685L671.43598046875,69.74744799554519L671.6193828125,64.887357686216L671.9861875,83.4393590561741L672.5363945312499,69.96083765592668L675.10402734375,71.29872481577823L675.83763671875,61.62923488946694L677.946763671875,57.92198537812466L678.77207421875,71.92958011576364L678.8637753906249,76.1452480694582L682.715224609375,62.442704397230486L683.54053515625,47.41423374944937L683.9990410156249,46.774929138558484L688.12559375,48.48579081646838L688.584099609375,55.79564115654769L688.67580078125,63.32321802726193L689.684513671875,74.64670859413496L691.885341796875,78.29913626759209L693.902767578125,66.8767039827775L697.2957109375,64.73574461188869L701.7890683593749,60.83311343379989L703.072884765625,63.204034726946574L708.208150390625,59.390476391723475L708.8500585937501,78.04678583503406L710.867484375,79.81557150102046L711.142587890625,75.64073178950117L711.325990234375,85.17888351814514L711.41769140625,75.7170523331093L713.5268183593749,68.99273139986558L714.260427734375,65.48174995103047L718.203578125,57.091827748396035L721.32141796875,72.47870776014874L722.513533203125,73.85666910053367L722.78863671875,62.11677923809802L728.8409140625,57.16728976508106L729.5745234375,58.91009608127084L730.3081328125,60.479390982095836L731.867052734375,59.8501345892575L732.69236328125,57.901747420221184L733.334271484375,67.20493734102162L733.884478515625,62.31462907127964L734.434685546875,65.14016633165669L737.735927734375,61.59937757677181L738.4695371093751,54.23879321272974L740.5786640625,60.29466481652673L740.7620664062499,58.69207666769383L740.853767578125,52.49441266728299L743.7882050781251,45.110536489258685L743.971607421875,51.676044115777415L745.8056308593749,52.47368202502199L746.26413671875,50.85782032612429L746.4475390625,50.935525529007926L746.6309414062499,59.35992642851588L749.015171875,58.654844745998396L752.408115234375,56.13735129204349L752.958322265625,55.15046633078162L753.8753339843751,49.322224242913435L754.242138671875,51.585001212414724L755.892759765625,64.46211183855993L759.1940019531249,62.76337821424705L759.377404296875,71.16913803965932L760.0193125000001,74.11814949046224L760.752921875,65.9389452498329L760.8446230468751,77.78697826101087L761.1197265625001,68.66385362327318L763.6873593749999,57.95386772951946L764.0541640625,55.19315397104501L764.2375664062499,64.53255904929368L765.429681640625,55.99870209624286L766.4383945312501,65.53949903552353L766.530095703125,78.07092164353635L766.9886015625001,70.92866409723293L767.447107421875,68.73775401389531L770.84005078125,62.71070796389271L772.490671875,58.04725811166899L774.232994140625,66.76863264477916L775.7002128906249,58.38756847575635L776.9840292968751,49.69365219656491L778.634650390625,51.80785798460563L778.90975390625,43.651381457430055L782.02759375,51.324162207791346L782.302697265625,56.975052880230386L783.1280078125,51.98780950591603L783.67821484375,47.948241259105174L784.136720703125,52.33144475546309L785.3288359375,51.819700186611186L785.7873417968751,48.37098677863339L787.254560546875,57.82120317829116L787.7130664062499,62.444110795863594L788.1715722656251,70.45396647751814L788.5383769531251,75.78349099762197L790.005595703125,73.7450945985732L793.1234355468749,70.42761231469952L795.324263671875,62.67740072215303L798.5338046875,70.59394043329185L799.1757128906249,66.44247537108622L799.6342187500001,63.42798522265169L800.0010234375001,61.619291133591005L800.5512304687501,65.24657468015461L800.91803515625,65.85211147475941L802.38525390625,63.597377995966774L803.3939667968749,71.14592679758005L804.7694843749999,73.0570005229925L805.5947949218751,64.25503364712887L807.15371484375,82.53635352161064L808.896037109375,79.36764544629969L810.3632558593749,74.84836504555759L810.82176171875,75.27846347177902L811.0051640625,68.20596697195626L811.55537109375,66.58052462761822L812.380681640625,65.60525922101539L813.847900390625,70.25621108816478L817.42424609375,71.47594887512106L817.6076484375001,58.593902658406L817.8827519531251,56.62439715059916L818.89146484375,57.53713829035951L819.533373046875,55.99033852977126L823.018017578125,60.29836978452942L824.485236328125,67.59568853738432L824.9437421875,63.07269090020838L825.1271445312499,84.44500342901391L826.96116796875,75.27672427963056L827.9698808593749,71.87020123444496L829.3453984375001,70.87350962955587L830.26241015625,63.992161333289076L833.2885488281249,54.1036301333068L836.0395839843751,52.35940030220627L836.3146874999999,44.50591795910157L836.86489453125,49.74243966434982L840.3495390625,53.407963798609885L841.541654296875,60.31977827916591L841.6333554687501,44.56964474527735L841.8167578125,51.87512018049975L842.36696484375,49.975072108299834L842.642068359375,47.78782104275767L844.292689453125,44.90463707009902L845.943310546875,40.033060019837144L848.144138671875,52.81844712301338L848.510943359375,55.25356827380805L849.611357421875,57.76186318650705L850.4366679687499,54.030729023015354L853.5545078125,62.26427074714255L855.9387382812499,64.58634022606329L856.3055429687499,55.50735969119351L856.4889453124999,59.484971370271694L857.681060546875,60.82431615549636L858.1395664062501,52.20292302663118L858.9648769531251,57.50230937153426L860.615498046875,59.1111078451428L864.19184375,56.41110915153017L865.200556640625,55.838332157584745L865.2922578125,45.5460548501064L867.859890625,34.65818846561937L868.2266953124999,39.12130196826053L868.4100976562501,44.41722562540078L869.51051171875,50.736446486351575L871.71133984375,46.673812336255374L872.81175390625,59.944565179531L873.5453632812499,52.19868355216303L874.0955703125001,49.121987909075656L875.104283203125,42.03985941211205L875.837892578125,34.64891564726725L876.0212949218751,37.02129383280485L876.5715019531249,46.82249852190511L879.6893417968749,41.70738800203199L880.5146523437501,39.68554391233026L880.6980546875,41.09049301406485L880.973158203125,48.2167958084389L883.81589453125,64.01202192950778L883.9075957031249,60.39887982437136L884.3661015625,55.61293900573391L885.8333203125001,41.74554118121805L885.925021484375,37.0903802642864L891.4270917968751,43.19867260301624L891.9772988281251,42.15114800625421L892.2524023437501,40.99902213708582L894.6366328125,43.97302439336264L895.0951386718749,41.56853685823983L898.1212773437501,44.83834433716611L898.212978515625,43.65856215785521L900.597208984375,36.66735951693536L902.1561289062499,40.32680459905011L902.52293359375,43.56969387054118L903.25654296875,40.80292743343575L903.7150488281251,33.906756460061466L903.80675,43.38294276492578L904.35695703125,52.73393232562215L906.19098046875,51.01397050648439L907.3830957031249,39.50977119277956L907.9333027343749,69.26002938233441L910.22583203125,64.59490651828955L910.500935546875,51.84722168875152L915.7279023437501,39.486110791028686L919.6710527343749,38.876388696839456L919.7627539062499,32.75083321810362L919.9461562500001,29.075499930862197L921.22997265625,32.10641106962845L921.96358203125,28.165235530665946L924.072708984375,40.46164131839955L924.1644101562499,36.843651457706386L925.8150312500001,31.007579763512766L928.19926171875,34.31288119144098L930.0332851562499,35.77245093708682L930.2166875,60.2106927844743L931.9590097656251,51.31113789290682L932.0507109375,58.01446051352189L934.61834375,53.658676308113115L935.3519531249999,55.234094673756736L935.443654296875,51.99045680425406L936.8191718749999,50.04427408255243L938.011287109375,44.687675560642546L938.1029882812501,47.23343866971887L940.3955175781251,44.572007646275765L942.4129433593749,41.92792680998769L942.963150390625,38.77064497488147L943.23825390625,38.9707203182622L943.3299550781251,39.614376635401776L943.6967597656251,44.713070425685544L944.155265625,40.96534225541126L944.613771484375,37.66948313102457L949.0154277343751,54.01835654528141L949.2905312500001,46.548513927168834L950.299244140625,57.774941689634666L951.5830605468751,44.61357612489188L953.417083984375,39.33481234160183L954.700900390625,42.45088740496107L955.1594062500001,41.70247688742107L958.919154296875,50.15481946578599L959.285958984375,41.088725012804915L962.036994140625,42.456012785460764L963.229109375,38.04027433794315L964.788029296875,42.197775713877L965.6133398437499,38.408943206103984L967.2639609375,38.75369925699568L967.81416796875,41.578608443086274L968.639478515625,49.03327617696286L972.58262890625,55.600521261733284L973.68304296875,51.68670164592885L973.8664453124999,53.003687654223974L974.5083535156251,44.89249037031218L977.4427910156251,37.40771644440951L977.8095957031251,32.91685208886792L980.6523320312501,32.840389031098496L981.2025390624999,29.6528445297702L982.8531601562499,26.169484495639892L983.4033671875001,32.4572462529395L985.9710000000001,32.56462552954146L986.15440234375,49.384608651058194L988.1718281249999,54.764098523968244L988.35523046875,59.03901466993655L989.2722421875001,52.70257546862858L990.280955078125,59.37293417006604L992.2066796875,50.28487161315076L992.481783203125,40.6431451901127L993.398794921875,68.8928315585121L996.333232421875,62.80375449066279L996.7917382812499,52.86697491661987L997.4336464843751,55.806296061083046L998.442359375,46.05044430331648L998.99256640625,39.14971102643436L1001.101693359375,49.14677106030506L1001.468498046875,41.00750708062749L1003.2108203125,42.93089313726543L1005.5950507812499,39.89603588235927L1005.9618554687501,41.74039930719336L1006.787166015625,40.228961806538216L1007.337373046875,40.89293263947848L1007.79587890625,36.05520402813153L1009.26309765625,60.90395575021224L1011.739029296875,55.915984561238446L1013.206248046875,50.30514629229866L1014.03155859375,42.22614333093475L1014.673466796875,43.138463776338654L1015.13197265625,36.355300488025414L1019.4419277343751,43.28123584837079L1019.808732421875,41.153463731244706L1022.6514687499999,40.40041157208016L1023.7518828125,39.42496916547028L1026.13611328125,36.74525927705992L1026.411216796875,38.2791000106804L1027.053125,37.10496000640825L1027.328228515625,35.35325378162275L1027.786734375,35.8730633800848L1028.1535390625,32.51967136138419L1028.978849609375,35.743747261274926L1029.07055078125,35.58374835676499L1029.4373554687502,34.44052679183677L1030.17096484375,28.518482741768725L1031.8215859375,32.81942297839457L1035.397931640625,34.352764898147825L1036.498345703125,33.17832560555534L1036.6817480468749,31.426439807777705L1037.3236562499999,36.135030551333365L1038.24066796875,41.05462944191115L1038.3323691406251,37.72305544292445L1038.699173828125,37.81855548797691L1039.249380859375,45.73002218167504L1039.524484375,44.71717997567167L1040.349794921875,41.491419096514115L1040.991703125,40.603184791241794L1041.633611328125,35.357744208078344L1042.183818359375,36.39936874706924L1042.27551953125,41.213232359352666L1042.8257265625,31.534883860056052L1043.284232421875,35.67648587158918L1044.201244140625,37.63783596739796L1045.118255859375,37.76742380266094L1045.668462890625,66.6437876149299L1047.0439804687499,54.64738368006907L1049.1531074218751,48.49676354137476L1049.336509765625,48.99528034704711L1050.528625,46.15272376378384L1051.81244140625,44.97080092493695L1051.99584375,40.072758332739944L1053.4630625,47.08254388853281L1053.554763671875,49.19397077756418L1053.64646484375,49.41360468876075L1056.3975,35.931496146589744L1058.04812109375,82.82139768795386L1058.873431640625,64.87756083499454L1059.6987421874999,49.922369834330034L1060.6157539062501,50.37425523393135L1061.074259765625,39.64955314035876L1063.091685546875,38.45084299532645L1063.8252949218752,52.9163391305292L1064.375501953125,45.887303478317534L1065.5676171875,41.14627097587937L1068.593755859375,32.54192925219428L1069.9692734374999,45.70571310687213L1070.2443769531249,47.8442611974566L1070.336078125,52.269056718473955L1070.611181640625,54.923934031084414L1071.4364921874999,37.143249307539506L1071.8032968750001,37.47067180674596L1072.1701015625001,34.001847528492L1073.2705156250001,34.538608517095156L1073.362216796875,36.955109554701565L1074.004125,37.88139906615428L1076.204953125,40.53161721747034L1076.38835546875,35.31480366381554L1077.763873046875,37.944437753844895L1077.85557421875,34.80971820786256L1079.5061953125,27.69277536916205L1080.9734140625,31.800387443719472L1081.89042578125,32.6941213551205L1083.2659433593751,22.75813947973899L1084.27465625,24.127105910065602L1085.466771484375,28.090152434928235L1086.65888671875,37.79853590540138L1088.217806640625,36.2930104321297L1088.85971484375,45.338306259277836L1090.69373828125,41.340483755566694L1091.335646484375,43.130679142228864L1091.61075,41.06312970755956L1092.7111640625,37.72815560231349L1092.802865234375,38.345226694721426L1095.6456015625001,43.95158046127726L1095.737302734375,37.366781610099686L1095.82900390625,37.08118007717096L1096.7460156250002,32.720930268524775L1097.9381308593752,35.34089149444822L1098.488337890625,35.86564600778006L1099.221947265625,42.46383204911246L1099.772154296875,44.85191034057857L1106.1912363281251,35.28892398212491L1108.66716796875,32.169187722608314L1111.509904296875,40.769568189120456L1111.96841015625,35.981185357916736L1113.06882421875,26.30121121475004L1117.7455839843751,40.39044895107223L1117.9289863281251,34.182880481754445L1119.48790625,37.788894955719286L1120.129814453125,33.14555919565379L1121.046826171875,34.02483551739227L1125.081677734375,56.544067977102074L1125.631884765625,40.20977411959455L1126.090390625,42.45225336064562L1127.5576093749999,54.7935742386096L1131.22565625,42.30114454316574L1131.77586328125,38.47096450367721L1132.050966796875,34.078412035539614L1132.14266796875,37.202602776879345L1134.893703125,26.51045055501655L1136.636025390625,29.520159221898762L1137.4613359375,29.23153997758373L1138.4700488281248,54.191701764328045L1141.2210839843751,47.176132169707934L1141.7712910156251,58.67512374626919L1141.8629921875,78.14118535887262L1142.41319921875,71.4944334375458L1146.356349609375,55.98693784030525L1147.91526953125,42.49355159307204L1150.024396484375,33.350297622509935L1150.941408203125,31.00601190683927L1151.8584199218749,24.886940477436923L1152.9588339843751,24.357164286462137L1153.692443359375,28.22818746076619L1155.0679609375,28.97996803201531L1156.71858203125,32.04909193032034L1158.460904296875,38.07945515819216L1159.377916015625,52.693506428248625L1159.561318359375,43.659159412504756L1165.2467910156251,35.62049564750284L1166.163802734375,27.132019610723884L1166.8057109375,36.70004509976768L1167.264216796875,38.77558261541616L1168.731435546875,35.832016235916356L1169.37334375,30.924209741549806L1169.465044921875,28.503136956040994L1170.565458984375,36.99910439584679L1171.115666015625,38.9550181930636L1173.4081953124999,31.75078869361597L1174.6003105468749,36.32963988283625L1175.700724609375,31.222783929701723L1177.62644921875,27.11144813559875L1180.652587890625,27.78631332580371L1182.670013671875,26.096787995482217L1183.036818359375,22.98862835284491L1184.96254296875,38.40289923392918L1189.9144062500002,45.03340620702416L1191.106521484375,39.06309927977011L1194.13266015625,37.57535956786204L1194.224361328125,39.82438240738392L1194.6828671875,35.937684999985855L1195.4164765625,32.55844433332482L1197.06709765625,33.148955488883814L1198.075810546875,38.7393732933302L1200.73514453125,32.668623975998145L1202.93597265625,29.026174385598903L1203.4861796875,24.222649075803865L1203.577880859375,16.62803388992679L1204.128087890625,28.826820333956082L1204.311490234375,28.29192553370696L1206.695720703125,30.589044209113077L1207.70443359375,39.82148208102338L1211.189078125,30.69983369305851L1211.5558828125,32.033789104723944L1212.10608984375,28.645273462834442L1212.747998046875,27.135775188811767L1212.8396992187502,42.985631779953714L1213.94011328125,45.164990179083375L1215.590734375,42.80732744078331L1218.1583671875,40.34550757558111L1219.167080078125,43.58091565645979L1221.1845058593751,38.19160494943148L1222.37662109375,30.76912963632559L1222.468322265625,25.792033337350876L1223.201931640625,22.282164446854978L1224.3023457031252,30.124854223668542L1225.4944609375,29.070745867534445L1228.24549609375,33.150780853853966L1229.1625078125,22.508524067867928L1229.437611328125,34.44955888516519L1229.621013671875,33.23640199776575L1232.738853515625,26.22517453199281L1233.1973593750001,23.58927138586235L1233.38076171875,25.14939616485072L1234.11437109375,28.179915476688247L1234.389474609375,25.80933817490182L1234.572876953125,25.434214016052188L1234.939681640625,28.35080618740912L1236.86540625,34.28965037911212L1237.04880859375,26.333512449689422L1238.240923828125,23.130663025369223L1240.35005078125,29.063120037443795L1240.4417519531248,30.528149800244083L1243.1010859374999,23.553000991257544L1244.3849023437501,41.88318948364344L1245.11851171875,39.267413690186096L1248.144650390625,32.98544821411164L1251.079087890625,30.263491150689212L1255.38904296875,35.43726135708017L1255.93925,30.163745703136932L1257.498169921875,35.377414088548825L1259.607296875,37.45839289757376L1260.89111328125,25.616702405210926L1261.4413203125,24.27141033201548L1261.99152734375,23.46423508809816L1262.266630859375,25.074374386192215L1263.0919414062498,48.555735742826414L1264.008953125,45.888997001251376L1264.19235546875,36.958398200750864L1267.0350917968751,43.119483364895L1267.2184941406251,43.674467796714765L1267.5852988281251,39.818569566917716L1268.7774140625,38.55225285126182L1269.5110234375,39.3632961552015L1269.786126953125,33.56658880423202L1270.1529316406252,42.13161994920589L1271.620150390625,26.326194191745753L1272.4454609375,25.220716515047503L1272.99566796875,33.982429909028525L1273.454173828125,26.672791278750452L1276.2969101562499,22.287008100583616L1276.388611328125,23.844427082572448L1276.8471171874999,34.727489582876785L1278.4060371093751,29.214271527503794L1279.689853515625,81.93272958316898L1279.7815546875,59.10824886101248L1281.06537109375,57.456615983274105L1281.2487734375,48.61146958996446L1281.707279296875,34.40299286508976L1283.357900390625,31.637629052387172L1284.9168203125,53.540910764765634L1285.46702734375,43.643990903303845L1286.2923378906248,38.75306120864896L1288.126361328125,37.38933672518939L1289.043373046875,39.71276870178029L1289.5935800781251,31.681827887734872L1290.0520859375,31.57576339930759L1290.7856953125001,34.13018026180678L1295.37075390625,30.42671926819521L1296.196064453125,32.91714267202821L1298.1217890625,54.83223004766136L1299.2222031249999,36.56461580637458L1299.864111328125,92.10265837271366L1300.230916015625,67.82826169029482L1303.0736523437502,50.121957014176886L1305.366181640625,33.7384519862839L1305.64128515625,29.668071191770338L1306.37489453125,38.74528715950671L1307.84211328125,54.663838962370676L1308.667423828125,38.034414488533535L1311.5101601562499,44.812315359786766L1311.6935625,41.024889215872044L1312.0603671874999,43.988544640634316L1312.6105742187501,37.38896011771391L1312.7939765625001,43.37782051507283L1312.8856777343751,46.44752564237704L1315.453310546875,39.387959829870645L1316.27862109375,49.813331453477936L1316.737126953125,39.312998872086695L1317.37903515625,49.76835487880758L1317.74583984375,58.65962403839564L1319.94666796875,49.85688553414848L1320.31347265625,44.05163132048909L1320.496875,35.85597879229346L1322.4225996093749,32.50942060870944L1322.51430078125,29.977874587447847L1322.606001953125,71.39505808580205L1323.8898183593749,50.167590407036805L1324.440025390625,50.52138757755544L1324.990232421875,48.63922143542215L1325.2653359375,62.171032861253295L1327.4661640625002,55.10539749452971L1327.64956640625,35.1576829411623L1327.83296875,23.712665320252924L1331.68441796875,37.26648808104069L1334.61885546875,31.784892848624438L1335.3524648437499,18.547324598063547L1338.9288105468752,25.265894758838144L1342.68855859375,32.962314633080645L1343.238765625,37.580166557626185L1343.697271484375,43.492544379020195L1344.064076171875,30.284415516300943L1346.081501953125,37.02064930978056L1346.7234101562499,32.684611808090544L1348.7408359375,28.51215597374321L1350.483158203125,30.721182473134768L1355.52672265625,48.2785428172142L1356.352033203125,38.91573680143961L1361.487298828125,35.392497636419364L1362.49601171875,30.13688747074055L1365.155345703125,24.36546581577765L1366.439162109375,29.280390600577725L1366.805966796875,25.946012138124374L1367.172771484375,31.27594061620792L1368.36488671875,29.761397703058012L1370.3823125000001,24.140171955168128L1372.9499453125,19.72021428421197L1373.3167500000002,30.158517459416107L1373.50015234375,19.142332697871872L1373.775255859375,25.099288507612048L1375.242474609375,29.72068421567838L1376.43458984375,30.399077196073684L1377.16819921875,25.5700018731998L1377.53500390625,27.385056679475408L1377.7184062499998,24.285200674351877L1378.0852109375,17.189175960166665L1378.8188203125,19.738505576099996L1378.910521484375,30.169492234548873L1379.277326171875,29.621139785173742L1379.5524296875,32.95740609332649L1379.827533203125,26.581388100440346L1379.919234375,21.708555082486395L1381.5698554687501,31.351521938380735L1383.58728125,19.33452427413955L1383.9540859375,21.025714564483764L1387.163626953125,26.752928738690233L1391.381880859375,30.712868354325284" style="fill: none;" fill="none"></path></g></g></g></g><g opacity="0.2"><g><g><g><path stroke="rgb(51, 187, 238)" stroke-width="2px" d="M185.05296484374998,377L187.712298828125,350.81944444444446L189.08781640624997,353.4375L189.17951757812503,340.34722222222223L189.91312695312502,375.69097222222223L191.563748046875,365.21875L192.84756445312502,365.21875L193.21436914062502,374.38194444444446L195.14009375,362.60069444444446L195.32349609374998,357.3645833333333L197.799427734375,344.27430555555554L198.07453125,366.52777777777777L198.4413359375,344.27430555555554L199.1749453125,349.5104166666667L200.91726757812498,375.69097222222223L202.017681640625,359.9826388888889L204.40191210937502,377L205.77742968750002,377L205.86913085937502,356.05555555555554L207.152947265625,371.7638888888889L208.25336132812498,367.83680555555554L209.26207421875,349.5104166666667L209.537177734375,331.18402777777777L212.37991406249998,356.05555555555554L212.65501757812498,361.2916666666667L215.13094921875,366.52777777777777L216.23136328125,358.6736111111111L216.96497265625,342.96527777777777L218.06538671875,369.1458333333333L218.79899609375002,349.5104166666667L220.26621484375002,366.52777777777777L221.45833007812502,344.27430555555554L223.3840546875,354.74652777777777L223.47575585937497,359.9826388888889L224.30106640625002,340.34722222222223L225.676583984375,341.65625L226.043388671875,342.96527777777777L226.960400390625,341.65625L227.41890625,356.05555555555554L227.510607421875,340.34722222222223L230.16994140625,353.4375L230.35334375,357.3645833333333L230.445044921875,342.96527777777777L232.279068359375,324.6388888888889L232.73757421874998,331.18402777777777L232.92097656250002,362.60069444444446L234.38819531250002,373.0729166666667L234.93840234374997,339.03819444444446L237.50603515625,354.74652777777777L237.87283984375,359.9826388888889L238.0562421875,329.875L241.082380859375,346.8923611111111L241.815990234375,342.96527777777777L242.36619726562498,357.3645833333333L242.4578984375,362.60069444444446L243.74171484375,370.4548611111111L244.567025390625,348.2013888888889L245.30063476562498,366.52777777777777L249.518888671875,359.9826388888889L249.885693359375,342.96527777777777L251.62801562500002,356.05555555555554L253.46203906249997,356.05555555555554L254.470751953125,322.0208333333333L255.11266015625,375.69097222222223L255.66286718749998,339.03819444444446L257.1300859375,318.09375L259.69771875,335.1111111111111L261.990248046875,323.3298611111111L262.81555859375,354.74652777777777L264.64958203125,335.1111111111111L269.78484765625,377L275.011814453125,318.09375L275.4703203125,341.65625L276.479033203125,341.65625L277.12094140625,324.6388888888889L277.48774609375,323.3298611111111L277.6711484375,346.8923611111111L278.496458984375,344.27430555555554L280.23878125,328.56597222222223L281.614298828125,290.6041666666667L282.16450585937497,342.96527777777777L284.09023046875,299.7673611111111L284.6404375,325.9479166666667L285.09894335937497,354.74652777777777L285.28234570312503,306.3125L286.566162109375,336.4201388888889L287.2080703125,356.05555555555554L288.49188671875,318.09375L288.950392578125,346.8923611111111L289.04209375,282.75L290.1425078125,316.78472222222223L291.05951953125,349.5104166666667L291.24292187500004,333.8020833333333L291.97653125,318.09375L292.801841796875,341.65625L295.09437109375,341.65625L295.736279296875,345.5833333333333L297.66200390625,299.7673611111111L298.2122109375,316.78472222222223L298.39561328125,308.93055555555554L298.670716796875,327.25694444444446L299.037521484375,333.8020833333333L299.587728515625,295.84027777777777L299.954533203125,301.0763888888889L300.4130390625,320.71180555555554L302.43046484375003,323.3298611111111L304.906396484375,316.78472222222223L306.740419921875,307.62152777777777L308.1159375,311.5486111111111L308.4827421875,339.03819444444446L309.491455078125,310.2395833333333L309.58315625,318.09375L313.34290429687496,353.4375L315.26862890625,269.65972222222223L315.360330078125,281.44097222222223L317.010951171875,273.58680555555554L317.10265234375004,312.8576388888889L320.40389453125005,289.2951388888889L321.13750390625,287.9861111111111L321.87111328124996,298.4583333333333L322.14621679687497,272.27777777777777L325.35575781250003,246.09722222222223L325.63086132812504,269.65972222222223L326.914677734375,255.26041666666663L327.18978125,247.40625L327.648287109375,272.27777777777777L328.748701171875,263.11458333333337L329.7574140625,280.13194444444446L332.600150390625,225.15277777777777L333.33375976562496,281.44097222222223L336.54330078124997,252.6423611111111L337.918818359375,225.15277777777777L339.47773828124997,255.26041666666663L339.66114062500003,246.09722222222223L339.936244140625,213.37152777777777L340.303048828125,215.98958333333337L346.171923828125,243.47916666666663L346.355326171875,250.02430555555554L347.455740234375,229.0798611111111L347.73084374999996,225.15277777777777L352.774408203125,264.4236111111111L353.141212890625,235.625L353.9665234375,218.6076388888889L354.608431640625,233.00694444444446L356.53415624999997,213.37152777777777L357.542869140625,210.75347222222223L357.81797265625,212.0625L358.3681796875,229.0798611111111L358.459880859375,221.22569444444446L359.8353984375,221.22569444444446L360.9358125,191.11805555555554L361.3026171875,195.0451388888889L361.761123046875,193.7361111111111L361.944525390625,167.55555555555554L363.136640625,174.10069444444446L363.228341796875,175.40972222222223L363.68684765625,151.84722222222223L364.878962890625,187.19097222222223L373.22376953125,171.4826388888889L374.049080078125,150.53819444444446L374.96609179687505,201.59027777777777L375.97480468749995,189.80902777777777L377.25862109375,192.42708333333337L377.35032226562504,209.44444444444446L377.717126953125,170.1736111111111L377.808828125,208.13541666666663L379.551150390625,167.55555555555554L384.59471484375,197.66319444444446L385.970232421875,187.19097222222223L386.520439453125,171.4826388888889L388.721267578125,164.9375L389.1797734375,141.375L396.057361328125,130.90277777777777L398.16648828124994,221.22569444444446L399.72540820312497,134.8298611111111L402.93494921875003,125.66666666666669L406.7863984375,192.42708333333337L407.244904296875,137.44791666666669L408.43701953125,130.90277777777777L409.17062890625,163.62847222222223L409.445732421875,150.53819444444446L411.27975585937503,116.50347222222223L412.47187109375,167.55555555555554L412.930376953125,133.52083333333331L414.21419335937503,142.68402777777777L414.39759570312503,147.9201388888889L415.22290624999994,140.06597222222223L415.40630859375,119.12152777777777L418.70755078125,162.31944444444446L419.71626367187497,146.6111111111111L419.80796484375,133.52083333333331L421.733689453125,150.53819444444446L422.37559765624997,138.75694444444446L424.301322265625,123.04861111111109L425.03493164062496,129.59375L425.768541015625,142.68402777777777L428.24447265624997,136.1388888888889L428.61127734375003,163.62847222222223L429.253185546875,134.8298611111111L429.5282890625,145.30208333333331L430.35359960937495,137.44791666666669L431.72911718750004,133.52083333333331L432.187623046875,167.55555555555554L432.55442773437494,162.31944444444446L433.654841796875,149.22916666666669L433.74654296875,155.77430555555554L434.11334765624997,120.43055555555554L434.571853515625,154.46527777777777L434.66355468750004,141.375L435.855669921875,116.50347222222223L435.94737109374995,126.97569444444446L436.039072265625,115.19444444444446L436.49757812499996,112.57638888888891L436.95608398437497,103.41319444444446L437.2311875,140.06597222222223L438.14819921874994,126.97569444444446L438.790107421875,162.31944444444446L441.2660390625,141.375L443.28346484375,121.73958333333331L444.2004765625,128.28472222222223L445.759396484375,119.12152777777777L445.85109765625003,103.41319444444446L451.261466796875,99.48611111111109L452.45358203125,151.84722222222223L454.10420312499997,132.21180555555554L454.37930664062503,113.88541666666669L455.02121484375,143.99305555555554L455.296318359375,108.64930555555554L456.029927734375,134.8298611111111L460.24818164062503,109.95833333333331L461.62369921875,113.88541666666669L462.815814453125,109.95833333333331L466.11705664062504,116.50347222222223L466.2087578125,120.43055555555554L467.95108007812496,121.73958333333331L468.04278125,129.59375L468.134482421875,132.21180555555554L469.418298828125,121.73958333333331L469.51,142.68402777777777L469.60170117187505,153.15625L470.243609375,112.57638888888891L471.802529296875,108.64930555555554L474.37016210937503,109.95833333333331L476.112484375,123.04861111111109L476.75439257812496,158.3923611111111L477.2128984375,71.99652777777777L478.40501367187494,91.63194444444446L478.6801171875,147.9201388888889L479.505427734375,95.55902777777777L480.605841796875,90.32291666666669L482.80666992187497,96.86805555555554L483.0817734375,107.34027777777777L486.56641796875,99.48611111111109L489.6842578125,115.19444444444446L491.15147656249997,108.64930555555554L492.80209765624994,94.25L493.81081054687496,112.57638888888891L494.544419921875,113.88541666666669L495.5531328125,107.34027777777777L496.83694921875,87.70486111111109L500.78009960937504,126.97569444444446L502.79752539062497,153.15625L502.88922656249997,107.34027777777777L503.531134765625,45.81597222222223L503.71453710937504,89.01388888888891L504.3564453125,57.59722222222223L506.74067578125,123.04861111111109L508.39129687499997,82.46875L510.40872265625,81.15972222222223L510.683826171875,95.55902777777777L511.32573437499997,69.37847222222223L512.4261484375,100.79513888888891L513.5265625,74.61458333333331L514.7186777343751,124.35763888888891L514.81037890625,78.54166666666669L514.99378125,82.46875L516.27759765625,86.39583333333331L518.4784257812499,89.01388888888891L518.7535292968751,79.85069444444446L518.936931640625,85.08680555555554L519.120333984375,75.92361111111109L519.3954375,120.43055555555554L519.7622421875,141.375L520.037345703125,91.63194444444446L521.77966796875,87.70486111111109L523.7970937499999,73.30555555555554L524.2555996093749,62.83333333333332L526.823232421875,61.52430555555554L527.0983359375,70.6875L527.64854296875,103.41319444444446L528.290451171875,81.15972222222223L528.473853515625,62.83333333333332L530.2161757812501,49.74305555555554L530.3078769531251,49.74305555555554L530.674681640625,56.28819444444446L530.94978515625,78.54166666666669L536.268453125,81.15972222222223L536.45185546875,79.85069444444446L537.3688671875,81.15972222222223L538.194177734375,95.55902777777777L541.22031640625,86.39583333333331L542.045626953125,81.15972222222223L542.412431640625,69.37847222222223L542.962638671875,81.15972222222223L544.063052734375,60.21527777777777L544.33815625,91.63194444444446L547.08919140625,81.15972222222223L547.914501953125,75.92361111111109L548.464708984375,58.90625L551.3074453124999,73.30555555555554L551.49084765625,86.39583333333331L552.3161582031249,58.90625L553.32487109375,77.23263888888891L553.875078125,57.59722222222223L554.516986328125,73.30555555555554L557.9099296874999,91.63194444444446L560.202458984375,58.90625L560.752666015625,79.85069444444446L561.302873046875,62.83333333333332L561.5779765625,79.85069444444446L563.59540234375,69.37847222222223L566.804943359375,58.90625L567.81365625,73.30555555555554L571.0231972656251,71.99652777777777L572.76551953125,77.23263888888891L573.040623046875,82.46875L573.3157265625,74.61458333333331L573.774232421875,106.03125L579.36800390625,90.32291666666669L579.826509765625,98.17708333333331L580.285015625,75.92361111111109L580.8352226562499,120.43055555555554L584.961775390625,77.23263888888891L586.4289941406249,71.99652777777777L588.90492578125,49.74305555555554L590.097041015625,53.67013888888891L590.830650390625,62.83333333333332L591.83936328125,49.74305555555554L592.93977734375,51.05208333333332L595.048904296875,104.72222222222223L595.599111328125,73.30555555555554L598.350146484375,69.37847222222223L599.2671582031251,66.76041666666669L599.633962890625,45.81597222222223L601.9264921875,58.90625L602.293296875,85.08680555555554L602.84350390625,58.90625L606.053044921875,66.76041666666669L606.3281484375,56.28819444444446L609.721091796875,87.70486111111109L610.638103515625,79.85069444444446L612.38042578125,89.01388888888891L613.11403515625,75.92361111111109L613.48083984375,85.08680555555554L613.6642421875,66.76041666666669L614.21444921875,53.67013888888891L615.039759765625,65.45138888888891L615.8650703125,92.94097222222223L617.1488867187501,81.15972222222223L617.790794921875,68.06944444444446L619.808220703125,92.94097222222223L620.45012890625,83.77777777777777L621.0003359375,78.54166666666669L621.3671406249999,82.46875L621.458841796875,69.37847222222223L623.9347734375,94.25L624.209876953125,81.15972222222223L624.48498046875,100.79513888888891L624.85178515625,65.45138888888891L626.31900390625,75.92361111111109L626.50240625,95.55902777777777L626.777509765625,100.79513888888891L626.8692109375,85.08680555555554L627.6028203125001,56.28819444444446L631.08746484375,47.125L632.2795800781249,56.28819444444446L633.6550976562501,54.97916666666668L635.397419921875,83.77777777777777L635.764224609375,58.90625L636.4061328125,49.74305555555554L637.231443359375,82.46875L640.0741796875001,77.23263888888891L641.082892578125,60.21527777777777L644.0173300781249,71.99652777777777L646.218158203125,41.88888888888891L647.96048046875,64.14236111111109L649.152595703125,48.43402777777777L649.244296875,56.28819444444446L649.97790625,75.92361111111109L650.1613085937499,53.67013888888891L654.0127578125,54.97916666666668L654.3795625,48.43402777777777L654.7463671875,62.83333333333332L655.7550800781249,48.43402777777777L655.84678125,68.06944444444446L656.0301835937499,75.92361111111109L656.121884765625,65.45138888888891L659.056322265625,79.85069444444446L660.06503515625,69.37847222222223L660.2484375,44.50694444444446L660.706943359375,58.90625L660.890345703125,53.67013888888891L661.8990585937499,43.19791666666668L662.540966796875,89.01388888888891L663.7330820312501,53.67013888888891L665.108599609375,66.76041666666669L665.9339101562499,70.6875L666.209013671875,70.6875L668.960048828125,64.14236111111109L671.06917578125,53.67013888888891L671.160876953125,78.54166666666669L671.43598046875,71.99652777777777L671.6193828125,57.59722222222223L671.9861875,111.26736111111109L672.5363945312499,49.74305555555554L675.10402734375,73.30555555555554L675.83763671875,47.125L677.946763671875,52.36111111111109L678.77207421875,92.94097222222223L678.8637753906249,82.46875L682.715224609375,41.88888888888891L683.54053515625,24.87152777777777L683.9990410156249,45.81597222222223L688.12559375,51.05208333333332L688.584099609375,66.76041666666669L688.67580078125,74.61458333333331L689.684513671875,91.63194444444446L691.885341796875,83.77777777777777L693.902767578125,49.74305555555554L697.2957109375,61.52430555555554L701.7890683593749,54.97916666666668L703.072884765625,66.76041666666669L708.208150390625,53.67013888888891L708.8500585937501,106.03125L710.867484375,82.46875L711.142587890625,69.37847222222223L711.325990234375,99.48611111111109L711.41769140625,61.52430555555554L713.5268183593749,58.90625L714.260427734375,60.21527777777777L718.203578125,44.50694444444446L721.32141796875,95.55902777777777L722.513533203125,75.92361111111109L722.78863671875,44.50694444444446L728.8409140625,49.74305555555554L729.5745234375,61.52430555555554L730.3081328125,62.83333333333332L731.867052734375,58.90625L732.69236328125,54.97916666666668L733.334271484375,81.15972222222223L733.884478515625,54.97916666666668L734.434685546875,69.37847222222223L737.735927734375,56.28819444444446L738.4695371093751,43.19791666666668L740.5786640625,69.37847222222223L740.7620664062499,56.28819444444446L740.853767578125,43.19791666666668L743.7882050781251,34.03472222222223L743.971607421875,61.52430555555554L745.8056308593749,53.67013888888891L746.26413671875,48.43402777777777L746.4475390625,51.05208333333332L746.6309414062499,71.99652777777777L749.015171875,57.59722222222223L752.408115234375,52.36111111111109L752.958322265625,53.67013888888891L753.8753339843751,40.57986111111109L754.242138671875,54.97916666666668L755.892759765625,83.77777777777777L759.1940019531249,60.21527777777777L759.377404296875,83.77777777777777L760.0193125000001,78.54166666666669L760.752921875,53.67013888888891L760.8446230468751,95.55902777777777L761.1197265625001,54.97916666666668L763.6873593749999,41.88888888888891L764.0541640625,51.05208333333332L764.2375664062499,78.54166666666669L765.429681640625,43.19791666666668L766.4383945312501,79.85069444444446L766.530095703125,96.86805555555554L766.9886015625001,60.21527777777777L767.447107421875,65.45138888888891L770.84005078125,53.67013888888891L772.490671875,51.05208333333332L774.232994140625,79.85069444444446L775.7002128906249,45.81597222222223L776.9840292968751,36.65277777777777L778.634650390625,54.97916666666668L778.90975390625,31.416666666666682L782.02759375,62.83333333333332L782.302697265625,65.45138888888891L783.1280078125,44.50694444444446L783.67821484375,41.88888888888891L784.136720703125,58.90625L785.3288359375,51.05208333333332L785.7873417968751,43.19791666666668L787.254560546875,71.99652777777777L787.7130664062499,69.37847222222223L788.1715722656251,82.46875L788.5383769531251,83.77777777777777L790.005595703125,70.6875L793.1234355468749,65.45138888888891L795.324263671875,51.05208333333332L798.5338046875,82.46875L799.1757128906249,60.21527777777777L799.6342187500001,58.90625L800.0010234375001,58.90625L800.5512304687501,70.6875L800.91803515625,66.76041666666669L802.38525390625,60.21527777777777L803.3939667968749,82.46875L804.7694843749999,75.92361111111109L805.5947949218751,51.05208333333332L807.15371484375,109.95833333333331L808.896037109375,74.61458333333331L810.3632558593749,68.06944444444446L810.82176171875,75.92361111111109L811.0051640625,57.59722222222223L811.55537109375,64.14236111111109L812.380681640625,64.14236111111109L813.847900390625,77.23263888888891L817.42424609375,73.30555555555554L817.6076484375001,39.27083333333332L817.8827519531251,53.67013888888891L818.89146484375,58.90625L819.533373046875,53.67013888888891L823.018017578125,66.76041666666669L824.485236328125,78.54166666666669L824.9437421875,56.28819444444446L825.1271445312499,116.50347222222223L826.96116796875,61.52430555555554L827.9698808593749,66.76041666666669L829.3453984375001,69.37847222222223L830.26241015625,53.67013888888891L833.2885488281249,39.27083333333332L836.0395839843751,49.74305555555554L836.3146874999999,32.72569444444446L836.86489453125,57.59722222222223L840.3495390625,58.90625L841.541654296875,70.6875L841.6333554687501,20.944444444444454L841.8167578125,62.83333333333332L842.36696484375,47.125L842.642068359375,44.50694444444446L844.292689453125,40.57986111111109L845.943310546875,32.72569444444446L848.144138671875,71.99652777777777L848.510943359375,58.90625L849.611357421875,61.52430555555554L850.4366679687499,48.43402777777777L853.5545078125,74.61458333333331L855.9387382812499,68.06944444444446L856.3055429687499,41.88888888888891L856.4889453124999,65.45138888888891L857.681060546875,62.83333333333332L858.1395664062501,39.27083333333332L858.9648769531251,65.45138888888891L860.615498046875,61.52430555555554L864.19184375,52.36111111111109L865.200556640625,54.97916666666668L865.2922578125,30.107638888888907L867.859890625,18.326388888888907L868.2266953124999,45.81597222222223L868.4100976562501,52.36111111111109L869.51051171875,60.21527777777777L871.71133984375,40.57986111111109L872.81175390625,79.85069444444446L873.5453632812499,40.57986111111109L874.0955703125001,44.50694444444446L875.104283203125,31.416666666666682L875.837892578125,23.5625L876.0212949218751,40.57986111111109L876.5715019531249,61.52430555555554L879.6893417968749,34.03472222222223L880.5146523437501,36.65277777777777L880.6980546875,43.19791666666668L880.973158203125,58.90625L883.81589453125,87.70486111111109L883.9075957031249,54.97916666666668L884.3661015625,48.43402777777777L885.8333203125001,20.944444444444454L885.925021484375,30.107638888888907L891.4270917968751,52.36111111111109L891.9772988281251,40.57986111111109L892.2524023437501,39.27083333333332L894.6366328125,48.43402777777777L895.0951386718749,37.96180555555554L898.1212773437501,49.74305555555554L898.212978515625,41.88888888888891L900.597208984375,26.180555555555546L902.1561289062499,45.81597222222223L902.52293359375,48.43402777777777L903.25654296875,36.65277777777777L903.7150488281251,23.5625L903.80675,57.59722222222223L904.35695703125,66.76041666666669L906.19098046875,48.43402777777777L907.3830957031249,22.25347222222223L907.9333027343749,113.88541666666669L910.22583203125,57.59722222222223L910.500935546875,32.72569444444446L915.7279023437501,20.944444444444454L919.6710527343749,37.96180555555554L919.7627539062499,23.5625L919.9461562500001,23.5625L921.22997265625,36.65277777777777L921.96358203125,22.25347222222223L924.072708984375,58.90625L924.1644101562499,31.416666666666682L925.8150312500001,22.25347222222223L928.19926171875,39.27083333333332L930.0332851562499,37.96180555555554L930.2166875,96.86805555555554L931.9590097656251,37.96180555555554L932.0507109375,68.06944444444446L934.61834375,47.125L935.3519531249999,57.59722222222223L935.443654296875,47.125L936.8191718749999,47.125L938.011287109375,36.65277777777777L938.1029882812501,51.05208333333332L940.3955175781251,40.57986111111109L942.4129433593749,37.96180555555554L942.963150390625,34.03472222222223L943.23825390625,39.27083333333332L943.3299550781251,40.57986111111109L943.6967597656251,52.36111111111109L944.155265625,35.34375L944.613771484375,32.72569444444446L949.0154277343751,78.54166666666669L949.2905312500001,35.34375L950.299244140625,74.61458333333331L951.5830605468751,24.87152777777777L953.417083984375,31.416666666666682L954.700900390625,47.125L955.1594062500001,40.57986111111109L958.919154296875,62.83333333333332L959.285958984375,27.489583333333318L962.036994140625,44.50694444444446L963.229109375,31.416666666666682L964.788029296875,48.43402777777777L965.6133398437499,32.72569444444446L967.2639609375,39.27083333333332L967.81416796875,45.81597222222223L968.639478515625,60.21527777777777L972.58262890625,65.45138888888891L973.68304296875,45.81597222222223L973.8664453124999,54.97916666666668L974.5083535156251,32.72569444444446L977.4427910156251,26.180555555555546L977.8095957031251,26.180555555555546L980.6523320312501,32.72569444444446L981.2025390624999,24.87152777777777L982.8531601562499,20.944444444444454L983.4033671875001,41.88888888888891L985.9710000000001,32.72569444444446L986.15440234375,74.61458333333331L988.1718281249999,62.83333333333332L988.35523046875,65.45138888888891L989.2722421875001,43.19791666666668L990.280955078125,69.37847222222223L992.2066796875,36.65277777777777L992.481783203125,26.180555555555546L993.398794921875,111.26736111111109L996.333232421875,53.67013888888891L996.7917382812499,37.96180555555554L997.4336464843751,60.21527777777777L998.442359375,31.416666666666682L998.99256640625,28.798611111111093L1001.101693359375,64.14236111111109L1001.468498046875,28.798611111111093L1003.2108203125,45.81597222222223L1005.5950507812499,35.34375L1005.9618554687501,44.50694444444446L1006.787166015625,37.96180555555554L1007.337373046875,41.88888888888891L1007.79587890625,28.798611111111093L1009.26309765625,98.17708333333331L1011.739029296875,48.43402777777777L1013.206248046875,41.88888888888891L1014.03155859375,30.107638888888907L1014.673466796875,44.50694444444446L1015.13197265625,26.180555555555546L1019.4419277343751,53.67013888888891L1019.808732421875,37.96180555555554L1022.6514687499999,39.27083333333332L1023.7518828125,37.96180555555554L1026.13611328125,32.72569444444446L1026.411216796875,40.57986111111109L1027.053125,35.34375L1027.328228515625,32.72569444444446L1027.786734375,36.65277777777777L1028.1535390625,27.489583333333318L1028.978849609375,40.57986111111109L1029.07055078125,35.34375L1029.4373554687502,32.72569444444446L1030.17096484375,19.635416666666682L1031.8215859375,39.27083333333332L1035.397931640625,36.65277777777777L1036.498345703125,31.416666666666682L1036.6817480468749,28.798611111111093L1037.3236562499999,43.19791666666668L1038.24066796875,48.43402777777777L1038.3323691406251,32.72569444444446L1038.699173828125,37.96180555555554L1039.249380859375,57.59722222222223L1039.524484375,43.19791666666668L1040.349794921875,36.65277777777777L1040.991703125,39.27083333333332L1041.633611328125,27.489583333333318L1042.183818359375,37.96180555555554L1042.27551953125,48.43402777777777L1042.8257265625,17.017361111111093L1043.284232421875,41.88888888888891L1044.201244140625,40.57986111111109L1045.118255859375,37.96180555555554L1045.668462890625,109.95833333333331L1047.0439804687499,36.65277777777777L1049.1531074218751,39.27083333333332L1049.336509765625,49.74305555555554L1050.528625,41.88888888888891L1051.81244140625,43.19791666666668L1051.99584375,32.72569444444446L1053.4630625,57.59722222222223L1053.554763671875,52.36111111111109L1053.64646484375,49.74305555555554L1056.3975,15.70833333333332L1058.04812109375,153.15625L1058.873431640625,37.96180555555554L1059.6987421874999,27.489583333333318L1060.6157539062501,51.05208333333332L1061.074259765625,23.5625L1063.091685546875,36.65277777777777L1063.8252949218752,74.61458333333331L1064.375501953125,35.34375L1065.5676171875,34.03472222222223L1068.593755859375,19.635416666666682L1069.9692734374999,65.45138888888891L1070.2443769531249,51.05208333333332L1070.336078125,58.90625L1070.611181640625,58.90625L1071.4364921874999,10.472222222222227L1071.8032968750001,37.96180555555554L1072.1701015625001,28.798611111111093L1073.2705156250001,35.34375L1073.362216796875,40.57986111111109L1074.004125,39.27083333333332L1076.204953125,44.50694444444446L1076.38835546875,27.489583333333318L1077.763873046875,41.88888888888891L1077.85557421875,30.107638888888907L1079.5061953125,17.017361111111093L1080.9734140625,37.96180555555554L1081.89042578125,34.03472222222223L1083.2659433593751,7.85416666666668L1084.27465625,26.180555555555546L1085.466771484375,34.03472222222223L1086.65888671875,52.36111111111109L1088.217806640625,34.03472222222223L1088.85971484375,58.90625L1090.69373828125,35.34375L1091.335646484375,45.81597222222223L1091.61075,37.96180555555554L1092.7111640625,32.72569444444446L1092.802865234375,39.27083333333332L1095.6456015625001,52.36111111111109L1095.737302734375,27.489583333333318L1095.82900390625,36.65277777777777L1096.7460156250002,26.180555555555546L1097.9381308593752,39.27083333333332L1098.488337890625,36.65277777777777L1099.221947265625,52.36111111111109L1099.772154296875,48.43402777777777L1106.1912363281251,20.944444444444454L1108.66716796875,27.489583333333318L1111.509904296875,53.67013888888891L1111.96841015625,28.798611111111093L1113.06882421875,11.78125L1117.7455839843751,61.52430555555554L1117.9289863281251,24.87152777777777L1119.48790625,43.19791666666668L1120.129814453125,26.180555555555546L1121.046826171875,35.34375L1125.081677734375,90.32291666666669L1125.631884765625,15.70833333333332L1126.090390625,45.81597222222223L1127.5576093749999,73.30555555555554L1131.22565625,23.5625L1131.77586328125,32.72569444444446L1132.050966796875,27.489583333333318L1132.14266796875,41.88888888888891L1134.893703125,10.472222222222227L1136.636025390625,34.03472222222223L1137.4613359375,28.798611111111093L1138.4700488281248,91.63194444444446L1141.2210839843751,36.65277777777777L1141.7712910156251,75.92361111111109L1141.8629921875,107.34027777777777L1142.41319921875,61.52430555555554L1146.356349609375,32.72569444444446L1147.91526953125,22.25347222222223L1150.024396484375,19.635416666666682L1150.941408203125,27.489583333333318L1151.8584199218749,15.70833333333332L1152.9588339843751,23.5625L1153.692443359375,34.03472222222223L1155.0679609375,30.107638888888907L1156.71858203125,36.65277777777777L1158.460904296875,47.125L1159.377916015625,74.61458333333331L1159.561318359375,30.107638888888907L1165.2467910156251,23.5625L1166.163802734375,14.399305555555546L1166.8057109375,51.05208333333332L1167.264216796875,41.88888888888891L1168.731435546875,31.416666666666682L1169.37334375,23.5625L1169.465044921875,24.87152777777777L1170.565458984375,49.74305555555554L1171.115666015625,41.88888888888891L1173.4081953124999,20.944444444444454L1174.6003105468749,43.19791666666668L1175.700724609375,23.5625L1177.62644921875,20.944444444444454L1180.652587890625,28.798611111111093L1182.670013671875,23.5625L1183.036818359375,18.326388888888907L1184.96254296875,61.52430555555554L1189.9144062500002,54.97916666666668L1191.106521484375,30.107638888888907L1194.13266015625,35.34375L1194.224361328125,43.19791666666668L1194.6828671875,30.107638888888907L1195.4164765625,27.489583333333318L1197.06709765625,34.03472222222223L1198.075810546875,47.125L1200.73514453125,23.5625L1202.93597265625,23.5625L1203.4861796875,17.017361111111093L1203.577880859375,5.236111111111093L1204.128087890625,47.125L1204.311490234375,27.489583333333318L1206.695720703125,34.03472222222223L1207.70443359375,53.67013888888891L1211.189078125,17.017361111111093L1211.5558828125,34.03472222222223L1212.10608984375,23.5625L1212.747998046875,24.87152777777777L1212.8396992187502,66.76041666666669L1213.94011328125,48.43402777777777L1215.590734375,39.27083333333332L1218.1583671875,36.65277777777777L1219.167080078125,48.43402777777777L1221.1845058593751,30.107638888888907L1222.37662109375,19.635416666666682L1222.468322265625,18.326388888888907L1223.201931640625,17.017361111111093L1224.3023457031252,41.88888888888891L1225.4944609375,27.489583333333318L1228.24549609375,39.27083333333332L1229.1625078125,6.545138888888907L1229.437611328125,52.36111111111109L1229.621013671875,31.416666666666682L1232.738853515625,15.70833333333332L1233.1973593750001,19.635416666666682L1233.38076171875,27.489583333333318L1234.11437109375,32.72569444444446L1234.389474609375,22.25347222222223L1234.572876953125,24.87152777777777L1234.939681640625,32.72569444444446L1236.86540625,43.19791666666668L1237.04880859375,14.399305555555546L1238.240923828125,18.326388888888907L1240.35005078125,37.96180555555554L1240.4417519531248,32.72569444444446L1243.1010859374999,13.090277777777773L1244.3849023437501,69.37847222222223L1245.11851171875,35.34375L1248.144650390625,23.5625L1251.079087890625,26.180555555555546L1255.38904296875,43.19791666666668L1255.93925,22.25347222222223L1257.498169921875,43.19791666666668L1259.607296875,40.57986111111109L1260.89111328125,7.85416666666668L1261.4413203125,22.25347222222223L1261.99152734375,22.25347222222223L1262.266630859375,27.489583333333318L1263.0919414062498,83.77777777777777L1264.008953125,41.88888888888891L1264.19235546875,23.5625L1267.0350917968751,52.36111111111109L1267.2184941406251,44.50694444444446L1267.5852988281251,34.03472222222223L1268.7774140625,36.65277777777777L1269.5110234375,40.57986111111109L1269.786126953125,24.87152777777777L1270.1529316406252,54.97916666666668L1271.620150390625,2.6180555555555465L1272.4454609375,23.5625L1272.99566796875,47.125L1273.454173828125,15.70833333333332L1276.2969101562499,15.70833333333332L1276.388611328125,26.180555555555546L1276.8471171874999,51.05208333333332L1278.4060371093751,20.944444444444454L1279.689853515625,161.01041666666669L1279.7815546875,24.87152777777777L1281.06537109375,54.97916666666668L1281.2487734375,35.34375L1281.707279296875,13.090277777777773L1283.357900390625,27.489583333333318L1284.9168203125,86.39583333333331L1285.46702734375,28.798611111111093L1286.2923378906248,31.416666666666682L1288.126361328125,35.34375L1289.043373046875,43.19791666666668L1289.5935800781251,19.635416666666682L1290.0520859375,31.416666666666682L1290.7856953125001,37.96180555555554L1295.37075390625,24.87152777777777L1296.196064453125,36.65277777777777L1298.1217890625,87.70486111111109L1299.2222031249999,9.163194444444454L1299.864111328125,175.40972222222223L1300.230916015625,31.416666666666682L1303.0736523437502,23.5625L1305.366181640625,9.163194444444454L1305.64128515625,23.5625L1306.37489453125,52.36111111111109L1307.84211328125,78.54166666666669L1308.667423828125,13.090277777777773L1311.5101601562499,54.97916666666668L1311.6935625,35.34375L1312.0603671874999,48.43402777777777L1312.6105742187501,27.489583333333318L1312.7939765625001,52.36111111111109L1312.8856777343751,51.05208333333332L1315.453310546875,28.798611111111093L1316.27862109375,65.45138888888891L1316.737126953125,23.5625L1317.37903515625,65.45138888888891L1317.74583984375,71.99652777777777L1319.94666796875,36.65277777777777L1320.31347265625,35.34375L1320.496875,23.5625L1322.4225996093749,27.489583333333318L1322.51430078125,26.180555555555546L1322.606001953125,133.52083333333331L1323.8898183593749,18.326388888888907L1324.440025390625,51.05208333333332L1324.990232421875,45.81597222222223L1325.2653359375,82.46875L1327.4661640625002,44.50694444444446L1327.64956640625,5.236111111111093L1327.83296875,6.545138888888907L1331.68441796875,57.59722222222223L1334.61885546875,23.5625L1335.3524648437499,-1.309027777777815L1338.9288105468752,35.34375L1342.68855859375,44.50694444444446L1343.238765625,44.50694444444446L1343.697271484375,52.36111111111109L1344.064076171875,10.472222222222227L1346.081501953125,47.125L1346.7234101562499,26.180555555555546L1348.7408359375,22.25347222222223L1350.483158203125,34.03472222222223L1355.52672265625,74.61458333333331L1356.352033203125,24.87152777777777L1361.487298828125,30.107638888888907L1362.49601171875,22.25347222222223L1365.155345703125,15.70833333333332L1366.439162109375,36.65277777777777L1366.805966796875,20.944444444444454L1367.172771484375,39.27083333333332L1368.36488671875,27.489583333333318L1370.3823125000001,15.70833333333332L1372.9499453125,13.090277777777773L1373.3167500000002,45.81597222222223L1373.50015234375,2.6180555555555465L1373.775255859375,34.03472222222223L1375.242474609375,36.65277777777777L1376.43458984375,31.416666666666682L1377.16819921875,18.326388888888907L1377.53500390625,30.107638888888907L1377.7184062499998,19.635416666666682L1378.0852109375,6.545138888888907L1378.8188203125,23.5625L1378.910521484375,45.81597222222223L1379.277326171875,28.798611111111093L1379.5524296875,37.96180555555554L1379.827533203125,17.017361111111093L1379.919234375,14.399305555555546L1381.5698554687501,45.81597222222223L1383.58728125,1.3090277777777732L1383.9540859375,23.5625L1387.163626953125,35.34375L1391.381880859375,36.65277777777777" style="fill: none;" fill="none"></path></g></g></g></g></g></g><g transform="translate(30, 377)" clip-path="url(#clip_1)"><clipPath id="clip_1"><rect width="1467" height="23"></rect></clipPath><g><g><line x1="0" y1="0" x2="0" y2="5" style="visibility: inherit;" fill="rgb(0, 0, 0)" stroke="rgb(200, 195, 188)" stroke-width="1px"></line><line x1="183.40234375" y1="0" x2="183.40234375" y2="5" style="visibility: inherit;" fill="rgb(0, 0, 0)" stroke="rgb(200, 195, 188)" stroke-width="1px"></line><line x1="366.8046875" y1="0" x2="366.8046875" y2="5" style="visibility: inherit;" fill="rgb(0, 0, 0)" stroke="rgb(200, 195, 188)" stroke-width="1px"></line><line x1="550.20703125" y1="0" x2="550.20703125" y2="5" style="visibility: inherit;" fill="rgb(0, 0, 0)" stroke="rgb(200, 195, 188)" stroke-width="1px"></line><line x1="733.609375" y1="0" x2="733.609375" y2="5" style="visibility: inherit;" fill="rgb(0, 0, 0)" stroke="rgb(200, 195, 188)" stroke-width="1px"></line><line x1="917.01171875" y1="0" x2="917.01171875" y2="5" style="visibility: inherit;" fill="rgb(0, 0, 0)" stroke="rgb(200, 195, 188)" stroke-width="1px"></line><line x1="1100.4140625" y1="0" x2="1100.4140625" y2="5" style="visibility: inherit;" fill="rgb(0, 0, 0)" stroke="rgb(200, 195, 188)" stroke-width="1px"></line><line x1="1283.81640625" y1="0" x2="1283.81640625" y2="5" style="visibility: inherit;" fill="rgb(0, 0, 0)" stroke="rgb(200, 195, 188)" stroke-width="1px"></line><line x1="1467.21875" y1="0" x2="1467.21875" y2="5" style="visibility: inherit;" fill="rgb(0, 0, 0)" stroke="rgb(200, 195, 188)" stroke-width="1px"></line></g><g transform="translate(0, 8)"><text x="0" y="0" dx="0em" dy="0.95em" style="text-anchor: middle; visibility: hidden; font-family: Roboto, sans-serif; font-size: 12px; font-weight: 200;" fill="rgb(232, 230, 227)" stroke="none" stroke-width="1px">-2k</text><text x="183.40234375" y="0" dx="0em" dy="0.95em" style="text-anchor: middle; visibility: inherit; font-family: Roboto, sans-serif; font-size: 12px; font-weight: 200;" fill="rgb(232, 230, 227)" stroke="none" stroke-width="1px">0</text><text x="366.8046875" y="0" dx="0em" dy="0.95em" style="text-anchor: middle; visibility: inherit; font-family: Roboto, sans-serif; font-size: 12px; font-weight: 200;" fill="rgb(232, 230, 227)" stroke="none" stroke-width="1px">2k</text><text x="550.20703125" y="0" dx="0em" dy="0.95em" style="text-anchor: middle; visibility: inherit; font-family: Roboto, sans-serif; font-size: 12px; font-weight: 200;" fill="rgb(232, 230, 227)" stroke="none" stroke-width="1px">4k</text><text x="733.609375" y="0" dx="0em" dy="0.95em" style="text-anchor: middle; visibility: inherit; font-family: Roboto, sans-serif; font-size: 12px; font-weight: 200;" fill="rgb(232, 230, 227)" stroke="none" stroke-width="1px">6k</text><text x="917.01171875" y="0" dx="0em" dy="0.95em" style="text-anchor: middle; visibility: inherit; font-family: Roboto, sans-serif; font-size: 12px; font-weight: 200;" fill="rgb(232, 230, 227)" stroke="none" stroke-width="1px">8k</text><text x="1100.4140625" y="0" dx="0em" dy="0.95em" style="text-anchor: middle; visibility: inherit; font-family: Roboto, sans-serif; font-size: 12px; font-weight: 200;" fill="rgb(232, 230, 227)" stroke="none" stroke-width="1px">10k</text><text x="1283.81640625" y="0" dx="0em" dy="0.95em" style="text-anchor: middle; visibility: inherit; font-family: Roboto, sans-serif; font-size: 12px; font-weight: 200;" fill="rgb(232, 230, 227)" stroke="none" stroke-width="1px">12k</text><text x="1467.21875" y="0" dx="0em" dy="0.95em" style="text-anchor: middle; visibility: hidden; font-family: Roboto, sans-serif; font-size: 12px; font-weight: 200;" fill="rgb(232, 230, 227)" stroke="none" stroke-width="1px">14k</text></g><line x1="0" y1="0" x2="1467.21875" y2="0" fill="rgb(0, 0, 0)" stroke="rgb(200, 195, 188)" stroke-width="1px"></line></g></g></g></g></svg>